<svg width="105" height="105" viewBox="0 0 105 105" fill="none" xmlns="http://www.w3.org/2000/svg">
<rect width="105" height="105" rx="8" fill="#E9E9E9"/>
<path fill-rule="evenodd" clip-rule="evenodd" d="M41.3125 24H61.8221L70.5625 32.7404V58.125C70.5625 60.8174 68.3799 63 65.6875 63H41.3125C38.6201 63 36.4375 60.8174 36.4375 58.125V28.875C36.4375 26.1826 38.6201 24 41.3125 24ZM55.9375 28.875H41.3125V58.125H65.6875V38.625H60.8125C58.1201 38.625 55.9375 36.4424 55.9375 33.75V28.875ZM60.8125 29.8846V33.75H64.6779L60.8125 29.8846Z" fill="#FBFBFB"/>
<rect x="41" y="28" width="25" height="32" fill="#FBFBFB"/>
<path fill-rule="evenodd" clip-rule="evenodd" d="M62 49.25C62 46.7647 59.9853 44.75 57.5 44.75H44.004C44.0943 44.7495 44.0656 44.7146 43.8677 44.4739C43.8191 44.4148 43.7603 44.3433 43.6906 44.2568C43.6216 44.1713 43.4286 43.9227 43.2589 43.7039C43.1385 43.5488 43.0298 43.4087 42.9852 43.3524C41.3741 41.3198 39.77 40.25 37.25 40.25H30.5C28.0147 40.25 26 42.2647 26 44.75V67.25C26 69.7353 28.0147 71.75 30.5 71.75H57.5C59.9853 71.75 62 69.7353 62 67.25V49.25ZM57.5 49.25V67.25H30.5V44.75H37.25C38.1145 44.75 38.6158 45.0843 39.4586 46.1476C39.4851 46.181 39.561 46.2789 39.6557 46.4009C39.8365 46.634 40.0856 46.9551 40.1881 47.0822C41.3196 48.4848 42.3721 49.2413 43.988 49.25L57.5 49.25Z" fill="#0F794E"/>
<rect x="29" y="44" width="13" height="25" fill="#0F794E"/>
<rect x="29" y="48" width="30" height="21" fill="#0F794E"/>
<path d="M37.86 53.86C38.7933 53.86 39.4733 54.0433 39.9 54.41C40.3267 54.7767 40.54 55.2933 40.54 55.96C40.54 56.2533 40.49 56.5367 40.39 56.81C40.2967 57.0767 40.14 57.3167 39.92 57.53C39.7 57.7433 39.4067 57.9133 39.04 58.04C38.6733 58.16 38.2233 58.22 37.69 58.22H36.87V61H35.97V53.86H37.86ZM37.78 54.63H36.87V57.45H37.59C38.0433 57.45 38.42 57.4033 38.72 57.31C39.02 57.21 39.2433 57.0533 39.39 56.84C39.5367 56.6267 39.61 56.3467 39.61 56C39.61 55.54 39.4633 55.1967 39.17 54.97C38.8767 54.7433 38.4133 54.63 37.78 54.63ZM47.7447 57.36C47.7447 58.16 47.5947 58.83 47.2947 59.37C47.0014 59.91 46.578 60.3167 46.0247 60.59C45.4714 60.8633 44.8014 61 44.0147 61H42.0247V53.86H44.2247C44.9447 53.86 45.568 53.9933 46.0947 54.26C46.6214 54.5267 47.028 54.92 47.3147 55.44C47.6014 55.9533 47.7447 56.5933 47.7447 57.36ZM46.7947 57.39C46.7947 56.7567 46.688 56.2367 46.4747 55.83C46.268 55.4233 45.9614 55.1233 45.5547 54.93C45.1547 54.73 44.668 54.63 44.0947 54.63H42.9247V60.23H43.8947C44.8614 60.23 45.5847 59.9933 46.0647 59.52C46.5514 59.04 46.7947 58.33 46.7947 57.39ZM50.2294 61H49.3294V53.86H53.3194V54.65H50.2294V57.18H53.1294V57.97H50.2294V61Z" fill="#FBFBFB"/>
<path d="M34.3944 74.5462H33.8404C33.8191 74.4278 33.7794 74.3236 33.7214 74.2337C33.6634 74.1437 33.5924 74.0674 33.5083 74.0046C33.4243 73.9419 33.3302 73.8945 33.226 73.8626C33.123 73.8306 33.0136 73.8146 32.8975 73.8146C32.688 73.8146 32.5004 73.8673 32.3347 73.9727C32.1702 74.078 32.04 74.2325 31.9441 74.4361C31.8494 74.6397 31.802 74.8883 31.802 75.1818C31.802 75.4777 31.8494 75.7275 31.9441 75.9311C32.04 76.1347 32.1708 76.2886 32.3365 76.3928C32.5022 76.4969 32.6886 76.549 32.8958 76.549C33.0106 76.549 33.1195 76.5336 33.2225 76.5028C33.3266 76.4709 33.4208 76.4241 33.5048 76.3626C33.5888 76.301 33.6599 76.2259 33.7179 76.1371C33.777 76.0471 33.8179 75.9441 33.8404 75.8281L34.3944 75.8299C34.3648 76.0086 34.3074 76.1732 34.2221 76.3235C34.1381 76.4727 34.0298 76.6017 33.8972 76.7106C33.7658 76.8183 33.6155 76.9018 33.4462 76.9609C33.2769 77.0201 33.0923 77.0497 32.8922 77.0497C32.5774 77.0497 32.2968 76.9751 32.0506 76.826C31.8044 76.6757 31.6103 76.4608 31.4682 76.1815C31.3274 75.9021 31.2569 75.5689 31.2569 75.1818C31.2569 74.7936 31.3279 74.4603 31.47 74.1822C31.612 73.9028 31.8062 73.6886 32.0524 73.5394C32.2986 73.3891 32.5785 73.3139 32.8922 73.3139C33.0852 73.3139 33.2651 73.3417 33.432 73.3974C33.6001 73.4518 33.751 73.5323 33.8848 73.6388C34.0185 73.7442 34.1292 73.8732 34.2168 74.0259C34.3044 74.1774 34.3636 74.3509 34.3944 74.5462ZM36.7359 75.869V74.2727H37.2686V77H36.7465V76.5277H36.7181C36.6554 76.6733 36.5548 76.7946 36.4163 76.8917C36.279 76.9876 36.1079 77.0355 35.9031 77.0355C35.728 77.0355 35.5729 76.997 35.4379 76.9201C35.3042 76.842 35.1988 76.7266 35.1219 76.5739C35.0461 76.4212 35.0083 76.2324 35.0083 76.0075V74.2727H35.5392V75.9435C35.5392 76.1294 35.5906 76.2773 35.6936 76.3874C35.7966 76.4975 35.9304 76.5526 36.0949 76.5526C36.1943 76.5526 36.2932 76.5277 36.3914 76.478C36.4909 76.4283 36.5731 76.3531 36.6382 76.2525C36.7045 76.1519 36.7371 76.024 36.7359 75.869ZM40.0256 74.9386L39.5444 75.0238C39.5243 74.9622 39.4923 74.9036 39.4485 74.848C39.4059 74.7924 39.3479 74.7468 39.2745 74.7113C39.2011 74.6758 39.1094 74.658 38.9993 74.658C38.849 74.658 38.7235 74.6918 38.6229 74.7592C38.5223 74.8255 38.4719 74.9113 38.4719 75.0167C38.4719 75.1078 38.5057 75.1812 38.5732 75.2369C38.6406 75.2925 38.7495 75.3381 38.8999 75.3736L39.3331 75.473C39.584 75.531 39.7711 75.6204 39.8942 75.7411C40.0173 75.8619 40.0788 76.0187 40.0788 76.2116C40.0788 76.375 40.0315 76.5206 39.9368 76.6484C39.8433 76.7751 39.7125 76.8745 39.5444 76.9467C39.3775 77.0189 39.1839 77.055 38.9638 77.055C38.6584 77.055 38.4092 76.9899 38.2163 76.8597C38.0233 76.7283 37.9049 76.5419 37.8612 76.3004L38.3743 76.2223C38.4063 76.3561 38.4719 76.4573 38.5714 76.5259C38.6708 76.5934 38.8004 76.6271 38.9602 76.6271C39.1342 76.6271 39.2733 76.591 39.3775 76.5188C39.4817 76.4454 39.5337 76.3561 39.5337 76.2507C39.5337 76.1655 39.5018 76.0939 39.4379 76.0359C39.3751 75.9779 39.2786 75.9341 39.1484 75.9045L38.6868 75.8033C38.4323 75.7453 38.2441 75.6529 38.1222 75.5263C38.0014 75.3996 37.9411 75.2392 37.9411 75.0451C37.9411 74.8841 37.986 74.7433 38.076 74.6225C38.166 74.5018 38.2902 74.4077 38.4489 74.3402C38.6075 74.2715 38.7892 74.2372 38.994 74.2372C39.2887 74.2372 39.5207 74.3011 39.69 74.429C39.8593 74.5556 39.9711 74.7255 40.0256 74.9386ZM41.9356 74.2727V74.6989H40.4459V74.2727H41.9356ZM40.8454 73.6193H41.3763V76.1992C41.3763 76.3022 41.3917 76.3797 41.4225 76.4318C41.4533 76.4827 41.4929 76.5176 41.5415 76.5366C41.5912 76.5543 41.645 76.5632 41.703 76.5632C41.7456 76.5632 41.7829 76.5603 41.8149 76.5543C41.8469 76.5484 41.8717 76.5437 41.8895 76.5401L41.9854 76.9787C41.9546 76.9905 41.9108 77.0024 41.854 77.0142C41.7971 77.0272 41.7261 77.0343 41.6409 77.0355C41.5012 77.0379 41.371 77.013 41.2503 76.9609C41.1295 76.9089 41.0319 76.8284 40.9573 76.7195C40.8827 76.6106 40.8454 76.4738 40.8454 76.3093V73.6193ZM43.6424 77.055C43.3867 77.055 43.1636 76.9964 42.973 76.8793C42.7824 76.7621 42.6345 76.5981 42.5291 76.3874C42.4238 76.1767 42.3711 75.9305 42.3711 75.6488C42.3711 75.3659 42.4238 75.1185 42.5291 74.9066C42.6345 74.6947 42.7824 74.5302 42.973 74.413C43.1636 74.2958 43.3867 74.2372 43.6424 74.2372C43.8981 74.2372 44.1212 74.2958 44.3118 74.413C44.5024 74.5302 44.6503 74.6947 44.7557 74.9066C44.861 75.1185 44.9137 75.3659 44.9137 75.6488C44.9137 75.9305 44.861 76.1767 44.7557 76.3874C44.6503 76.5981 44.5024 76.7621 44.3118 76.8793C44.1212 76.9964 43.8981 77.055 43.6424 77.055ZM43.6442 76.6094C43.8099 76.6094 43.9472 76.5656 44.0561 76.478C44.165 76.3904 44.2455 76.2738 44.2976 76.1282C44.3509 75.9826 44.3775 75.8222 44.3775 75.647C44.3775 75.473 44.3509 75.3132 44.2976 75.1676C44.2455 75.0208 44.165 74.9031 44.0561 74.8143C43.9472 74.7255 43.8099 74.6811 43.6442 74.6811C43.4773 74.6811 43.3388 74.7255 43.2287 74.8143C43.1198 74.9031 43.0387 75.0208 42.9854 75.1676C42.9334 75.3132 42.9073 75.473 42.9073 75.647C42.9073 75.8222 42.9334 75.9826 42.9854 76.1282C43.0387 76.2738 43.1198 76.3904 43.2287 76.478C43.3388 76.5656 43.4773 76.6094 43.6442 76.6094ZM45.5063 77V74.2727H46.0159V74.7166H46.0496C46.1064 74.5663 46.1994 74.4491 46.3284 74.3651C46.4574 74.2798 46.6119 74.2372 46.7918 74.2372C46.9741 74.2372 47.1268 74.2798 47.2499 74.3651C47.3742 74.4503 47.4659 74.5675 47.5251 74.7166H47.5535C47.6186 74.571 47.7222 74.455 47.8643 74.3686C48.0063 74.281 48.1756 74.2372 48.3721 74.2372C48.6195 74.2372 48.8213 74.3147 48.9775 74.4698C49.135 74.6249 49.2137 74.8587 49.2137 75.1712V77H48.6828V75.2209C48.6828 75.0362 48.6325 74.9025 48.5319 74.8196C48.4313 74.7367 48.3111 74.6953 48.1714 74.6953C47.9986 74.6953 47.8643 74.7486 47.7684 74.8551C47.6725 74.9605 47.6246 75.096 47.6246 75.2617V77H47.0954V75.1871C47.0954 75.0392 47.0493 74.9202 46.9569 74.8303C46.8646 74.7403 46.7445 74.6953 46.5965 74.6953C46.4959 74.6953 46.403 74.7219 46.3177 74.7752C46.2337 74.8273 46.1656 74.9001 46.1135 74.9936C46.0626 75.0871 46.0372 75.1954 46.0372 75.3185V77H45.5063ZM51.1007 77.055C50.832 77.055 50.6006 76.9976 50.4064 76.8828C50.2135 76.7668 50.0643 76.604 49.959 76.3945C49.8548 76.1838 49.8027 75.937 49.8027 75.6541C49.8027 75.3748 49.8548 75.1286 49.959 74.9155C50.0643 74.7024 50.2111 74.5361 50.3993 74.4165C50.5887 74.297 50.8101 74.2372 51.0634 74.2372C51.2173 74.2372 51.3664 74.2627 51.5108 74.3136C51.6552 74.3645 51.7849 74.4444 51.8997 74.5533C52.0145 74.6622 52.1051 74.8036 52.1713 74.9776C52.2376 75.1504 52.2708 75.3606 52.2708 75.608V75.7962H50.1028V75.3984H51.7505C51.7505 75.2588 51.7221 75.1351 51.6653 75.0273C51.6085 74.9184 51.5286 74.8326 51.4256 74.7699C51.3238 74.7071 51.2042 74.6758 51.0669 74.6758C50.9178 74.6758 50.7876 74.7125 50.6763 74.7859C50.5662 74.8581 50.481 74.9528 50.4206 75.07C50.3614 75.186 50.3319 75.312 50.3319 75.4482V75.7589C50.3319 75.9412 50.3638 76.0962 50.4277 76.2241C50.4928 76.3519 50.5834 76.4496 50.6994 76.517C50.8154 76.5833 50.9509 76.6165 51.106 76.6165C51.2066 76.6165 51.2984 76.6023 51.3812 76.5739C51.4641 76.5443 51.5357 76.5005 51.5961 76.4425C51.6564 76.3845 51.7026 76.3129 51.7346 76.2276L52.237 76.3182C52.1968 76.4661 52.1246 76.5958 52.0204 76.707C51.9174 76.8171 51.7878 76.9029 51.6316 76.9645C51.4765 77.0249 51.2995 77.055 51.1007 77.055ZM52.8598 77V74.2727H53.373V74.706H53.4014C53.4511 74.5592 53.5387 74.4438 53.6642 74.3597C53.7908 74.2745 53.934 74.2319 54.0938 74.2319C54.127 74.2319 54.166 74.2331 54.211 74.2354C54.2572 74.2378 54.2933 74.2408 54.3193 74.2443V74.7521C54.298 74.7462 54.2602 74.7397 54.2057 74.7326C54.1512 74.7243 54.0968 74.7202 54.0423 74.7202C53.9169 74.7202 53.805 74.7468 53.7068 74.8001C53.6097 74.8522 53.5328 74.925 53.4759 75.0185C53.4191 75.1108 53.3907 75.2161 53.3907 75.3345V77H52.8598ZM56.1446 77V73.3636H56.6933V76.5277H58.341V77H56.1446ZM60.0731 77.055C59.8174 77.055 59.5943 76.9964 59.4037 76.8793C59.2131 76.7621 59.0651 76.5981 58.9598 76.3874C58.8544 76.1767 58.8018 75.9305 58.8018 75.6488C58.8018 75.3659 58.8544 75.1185 58.9598 74.9066C59.0651 74.6947 59.2131 74.5302 59.4037 74.413C59.5943 74.2958 59.8174 74.2372 60.0731 74.2372C60.3287 74.2372 60.5519 74.2958 60.7425 74.413C60.933 74.5302 61.081 74.6947 61.1863 74.9066C61.2917 75.1185 61.3444 75.3659 61.3444 75.6488C61.3444 75.9305 61.2917 76.1767 61.1863 76.3874C61.081 76.5981 60.933 76.7621 60.7425 76.8793C60.5519 76.9964 60.3287 77.055 60.0731 77.055ZM60.0748 76.6094C60.2406 76.6094 60.3779 76.5656 60.4868 76.478C60.5957 76.3904 60.6762 76.2738 60.7282 76.1282C60.7815 75.9826 60.8081 75.8222 60.8081 75.647C60.8081 75.473 60.7815 75.3132 60.7282 75.1676C60.6762 75.0208 60.5957 74.9031 60.4868 74.8143C60.3779 74.7255 60.2406 74.6811 60.0748 74.6811C59.9079 74.6811 59.7694 74.7255 59.6594 74.8143C59.5505 74.9031 59.4694 75.0208 59.4161 75.1676C59.364 75.3132 59.338 75.473 59.338 75.647C59.338 75.8222 59.364 75.9826 59.4161 76.1282C59.4694 76.2738 59.5505 76.3904 59.6594 76.478C59.7694 76.5656 59.9079 76.6094 60.0748 76.6094ZM62.1798 78.0227C62.1005 78.0227 62.0283 78.0162 61.9632 78.0032C61.8981 77.9914 61.8495 77.9783 61.8176 77.9641L61.9454 77.5291C62.0425 77.5552 62.1289 77.5664 62.2046 77.5629C62.2804 77.5593 62.3473 77.5309 62.4053 77.4776C62.4645 77.4244 62.5165 77.3374 62.5615 77.2166L62.6272 77.0355L61.6294 74.2727H62.1975L62.8882 76.3892H62.9166L63.6073 74.2727H64.1773L63.0534 77.364C63.0013 77.506 62.935 77.6262 62.8545 77.7244C62.774 77.8239 62.6781 77.8984 62.5669 77.9482C62.4556 77.9979 62.3266 78.0227 62.1798 78.0227ZM65.3918 77.0604C65.219 77.0604 65.0627 77.0284 64.923 76.9645C64.7834 76.8994 64.6727 76.8053 64.591 76.6822C64.5105 76.5591 64.4703 76.4081 64.4703 76.2294C64.4703 76.0755 64.4999 75.9489 64.559 75.8494C64.6182 75.75 64.6981 75.6713 64.7987 75.6133C64.8994 75.5553 65.0118 75.5115 65.1361 75.4819C65.2604 75.4523 65.387 75.4298 65.5161 75.4144C65.6794 75.3955 65.812 75.3801 65.9138 75.3683C66.0156 75.3552 66.0896 75.3345 66.1357 75.3061C66.1819 75.2777 66.205 75.2315 66.205 75.1676V75.1552C66.205 75.0001 66.1612 74.88 66.0736 74.7947C65.9872 74.7095 65.8582 74.6669 65.6865 74.6669C65.5078 74.6669 65.3669 74.7066 65.2639 74.7859C65.1621 74.864 65.0917 74.951 65.0526 75.0469L64.5537 74.9332C64.6129 74.7675 64.6993 74.6338 64.8129 74.532C64.9278 74.429 65.0597 74.3544 65.2089 74.3082C65.358 74.2609 65.5149 74.2372 65.6794 74.2372C65.7883 74.2372 65.9037 74.2502 66.0257 74.2763C66.1488 74.3011 66.2636 74.3473 66.3701 74.4148C66.4778 74.4822 66.566 74.5787 66.6347 74.7042C66.7033 74.8285 66.7377 74.9901 66.7377 75.1889V77H66.2192V76.6271H66.1979C66.1636 76.6958 66.1121 76.7633 66.0434 76.8295C65.9748 76.8958 65.8866 76.9509 65.7789 76.9947C65.6711 77.0385 65.5421 77.0604 65.3918 77.0604ZM65.5072 76.6342C65.654 76.6342 65.7794 76.6052 65.8836 76.5472C65.989 76.4892 66.0689 76.4135 66.1233 76.32C66.1789 76.2253 66.2068 76.1241 66.2068 76.0163V75.6648C66.1878 75.6837 66.1511 75.7015 66.0967 75.718C66.0434 75.7334 65.9825 75.747 65.9138 75.7589C65.8451 75.7695 65.7783 75.7796 65.7132 75.7891C65.6481 75.7973 65.5936 75.8045 65.5498 75.8104C65.4468 75.8234 65.3527 75.8453 65.2675 75.8761C65.1834 75.9068 65.116 75.9512 65.0651 76.0092C65.0154 76.0661 64.9905 76.1418 64.9905 76.2365C64.9905 76.3679 65.039 76.4673 65.1361 76.5348C65.2332 76.6011 65.3569 76.6342 65.5072 76.6342ZM67.9757 73.3636V77H67.4448V73.3636H67.9757ZM69.963 74.2727V74.6989H68.4733V74.2727H69.963ZM68.8728 73.6193H69.4037V76.1992C69.4037 76.3022 69.4191 76.3797 69.4498 76.4318C69.4806 76.4827 69.5203 76.5176 69.5688 76.5366C69.6185 76.5543 69.6724 76.5632 69.7304 76.5632C69.773 76.5632 69.8103 76.5603 69.8422 76.5543C69.8742 76.5484 69.8991 76.5437 69.9168 76.5401L70.0127 76.9787C69.9819 76.9905 69.9381 77.0024 69.8813 77.0142C69.8245 77.0272 69.7535 77.0343 69.6682 77.0355C69.5286 77.0379 69.3983 77.013 69.2776 76.9609C69.1569 76.9089 69.0592 76.8284 68.9846 76.7195C68.9101 76.6106 68.8728 76.4738 68.8728 76.3093V73.6193ZM70.8858 78.0227C70.8065 78.0227 70.7343 78.0162 70.6692 78.0032C70.6041 77.9914 70.5556 77.9783 70.5236 77.9641L70.6515 77.5291C70.7485 77.5552 70.8349 77.5664 70.9107 77.5629C70.9864 77.5593 71.0533 77.5309 71.1113 77.4776C71.1705 77.4244 71.2226 77.3374 71.2676 77.2166L71.3333 77.0355L70.3354 74.2727H70.9036L71.5943 76.3892H71.6227L72.3134 74.2727H72.8833L71.7594 77.364C71.7073 77.506 71.641 77.6262 71.5605 77.7244C71.4801 77.8239 71.3842 77.8984 71.2729 77.9482C71.1616 77.9979 71.0326 78.0227 70.8858 78.0227Z" fill="black"/>
</svg>
